<svg display="none">
	<defs>
		<g id="fire">
			<path xmlns="http://www.w3.org/2000/svg" fill="url(#paint0_linear_1_95)" d="M17.7468 7.25C18.5598 8.38815 18.9968 9.75188 18.9968 11.1506V12.5C19.4253 12.5 19.8414 12.3568 20.1791 12.0931C20.5168 11.8294 20.7567 11.4605 20.8606 11.0448L20.9968 10.5L21.3663 10.9434C21.9621 11.6583 22.2854 12.561 22.2789 13.4915C22.2725 14.4221 21.9367 15.3202 21.3311 16.0268C21.1041 16.2915 20.9855 16.6322 20.9988 16.9806C21.0122 17.3291 21.1565 17.6596 21.4031 17.9062C21.5407 18.0439 21.7059 18.151 21.8877 18.2205C22.0696 18.29 22.2641 18.3203 22.4584 18.3096C22.6528 18.2988 22.8427 18.2471 23.0158 18.158C23.1889 18.0688 23.3412 17.9441 23.4628 17.7921L24.4968 16.5L25.4968 19C25.9503 20.5115 25.986 22.1177 25.6002 23.6479C25.2144 25.1781 24.4215 26.5753 23.3056 27.6912L23.1795 27.8173C21.4619 29.535 19.1322 30.5 16.7031 30.5H15.6828C14.1011 30.5 12.5464 30.0904 11.17 29.3111C9.79359 28.5318 8.64247 27.4094 7.8287 26.0531C6.85428 24.4291 6.40726 22.5429 6.5492 20.6542C6.69114 18.7656 7.41505 16.9674 8.62127 15.5072L12.669 10.6073C13.0679 10.1244 13.3242 9.53994 13.4093 8.91945C13.4943 8.29897 13.4046 7.66707 13.1503 7.09475C12.8276 6.36877 12.7719 5.55208 12.9932 4.78904C13.2144 4.026 13.6983 3.36575 14.3593 2.925L16.4968 1.5V3.34944C16.4968 4.74812 16.9339 6.11185 17.7468 7.25Z"/><path xmlns="http://www.w3.org/2000/svg" fill="#FDD04A" d="M20.189 27.0882L20.1934 27.0838C20.9711 26.3001 21.526 25.3234 21.8009 24.2541C22.0758 23.1848 22.0608 22.0616 21.7575 21L20.3029 22.4546C20.1657 22.5919 20.0027 22.7008 19.8233 22.7751C19.644 22.8494 19.4517 22.8877 19.2576 22.8877C19.0635 22.8877 18.8712 22.8494 18.6919 22.7751C18.5125 22.7008 18.3495 22.5919 18.2123 22.4546C17.9514 22.1938 17.7974 21.8448 17.7807 21.4763C17.7639 21.1078 17.8855 20.7463 18.1217 20.4629C18.608 19.8794 18.9136 19.1667 19.0012 18.4122C19.0887 17.6577 18.9545 16.8941 18.6148 16.2147L16.2575 11.5L15.895 15.4875C15.8515 15.9657 15.7119 16.4303 15.4845 16.8532C15.2571 17.2762 14.9466 17.6488 14.5717 17.9489L12.5109 19.5976C11.9639 20.0352 11.5223 20.5902 11.2188 21.2216C10.9154 21.853 10.7578 22.5445 10.7578 23.2451V23.8125C10.7578 24.4973 10.9084 25.1736 11.1988 25.7938C11.4892 26.4139 11.9125 26.9626 12.4385 27.4009C13.2902 28.1106 14.3665 28.4943 15.475 28.4834L16.9199 28.4691C18.1488 28.4568 19.3234 27.9606 20.189 27.0882Z"/><path xmlns="http://www.w3.org/2000/svg" fill="#FE691E" d="M8 12C7.86739 12 7.74021 11.9473 7.64645 11.8536C7.55268 11.7598 7.5 11.6326 7.5 11.5V10.5C7.5 10.3674 7.55268 10.2402 7.64645 10.1464C7.74021 10.0527 7.86739 10 8 10C8.13261 10 8.25979 10.0527 8.35355 10.1464C8.44732 10.2402 8.5 10.3674 8.5 10.5V11.5C8.5 11.6326 8.44732 11.7598 8.35355 11.8536C8.25979 11.9473 8.13261 12 8 12Z"/><path xmlns="http://www.w3.org/2000/svg" fill="#FF8D54" d="M9.5 9.5C9.36739 9.5 9.24021 9.44732 9.14645 9.35355C9.05268 9.25979 9 9.13261 9 9V8C9 7.86739 9.05268 7.74021 9.14645 7.64645C9.24021 7.55268 9.36739 7.5 9.5 7.5C9.63261 7.5 9.75979 7.55268 9.85355 7.64645C9.94732 7.74021 10 7.86739 10 8V9C10 9.13261 9.94732 9.25979 9.85355 9.35355C9.75979 9.44732 9.63261 9.5 9.5 9.5Z"/><path xmlns="http://www.w3.org/2000/svg" fill="#FFB895" d="M7.5 7.5C7.36739 7.5 7.24021 7.44732 7.14645 7.35355C7.05268 7.25979 7 7.13261 7 7V6C7 5.86739 7.05268 5.74021 7.14645 5.64645C7.24021 5.55268 7.36739 5.5 7.5 5.5C7.63261 5.5 7.75979 5.55268 7.85355 5.64645C7.94732 5.74021 8 5.86739 8 6V7C8 7.13261 7.94732 7.25979 7.85355 7.35355C7.75979 7.44732 7.63261 7.5 7.5 7.5Z"/><path xmlns="http://www.w3.org/2000/svg" fill="#FE691E" d="M25 13.5C24.8674 13.5 24.7402 13.4473 24.6464 13.3536C24.5527 13.2598 24.5 13.1326 24.5 13V12C24.5 11.8674 24.5527 11.7402 24.6464 11.6464C24.7402 11.5527 24.8674 11.5 25 11.5C25.1326 11.5 25.2598 11.5527 25.3536 11.6464C25.4473 11.7402 25.5 11.8674 25.5 12V13C25.5 13.1326 25.4473 13.2598 25.3536 13.3536C25.2598 13.4473 25.1326 13.5 25 13.5Z"/><path xmlns="http://www.w3.org/2000/svg" fill="#FF8D54" d="M23.5 10C23.3674 10 23.2402 9.94732 23.1464 9.85355C23.0527 9.75979 23 9.63261 23 9.5V8.5C23 8.36739 23.0527 8.24021 23.1464 8.14645C23.2402 8.05268 23.3674 8 23.5 8C23.6326 8 23.7598 8.05268 23.8536 8.14645C23.9473 8.24021 24 8.36739 24 8.5V9.5C24 9.63261 23.9473 9.75979 23.8536 9.85355C23.7598 9.94732 23.6326 10 23.5 10Z"/><path xmlns="http://www.w3.org/2000/svg" fill="#FFB895" d="M25.5 8.5C25.3674 8.5 25.2402 8.44732 25.1464 8.35355C25.0527 8.25979 25 8.13261 25 8V6.5C25 6.36739 25.0527 6.24021 25.1464 6.14645C25.2402 6.05268 25.3674 6 25.5 6C25.6326 6 25.7598 6.05268 25.8536 6.14645C25.9473 6.24021 26 6.36739 26 6.5V8C26 8.13261 25.9473 8.25979 25.8536 8.35355C25.7598 8.44732 25.6326 8.5 25.5 8.5Z"/><defs xmlns="http://www.w3.org/2000/svg"><linearGradient id="paint0_linear_1_95" x1="16.194" x2="16.194" y1="1.5" y2="30.5" gradientUnits="userSpaceOnUse"><stop stop-color="#FF9159"/><stop offset=".688" stop-color="#FF7631"/><stop offset="1" stop-color="#FF6A1F"/></linearGradient></defs>
		</g>
		<g id="hero-svg">
			<path xmlns="http://www.w3.org/2000/svg" stroke="#FDD048" stroke-linecap="round" stroke-width="4" d="M2.5 13.9265C33.1667 4.92648 162.1 -7.67352 432.5 13.9265"/>
		</g>
		<g id="logo">
			<path xmlns="http://www.w3.org/2000/svg" fill="url(#paint0_linear_1_60)" d="M27.9369 11.9175C22.5163 12.6142 11.0936 9.6156 10.3969 4.19479L10.3166 4.20511C10.8742 8.54367 13.1325 12.483 16.5945 15.1566C20.0566 17.8302 24.4389 19.019 28.7775 18.4616C31.3806 18.127 34.0101 18.8402 36.0875 20.4443C38.1649 22.0484 39.5198 24.4121 39.8544 27.0152C40.1896 29.6182 39.4768 32.2481 37.8731 34.3256C36.2693 36.4034 33.9059 37.7587 31.3029 38.0939C28.6996 38.4289 26.07 37.7161 23.9923 36.1124C21.9147 34.5086 20.5592 32.1452 20.2241 29.5422C19.948 27.3938 19.2514 25.321 18.1741 23.4419C17.0968 21.5629 15.66 19.9143 13.9456 18.5906C12.2312 17.2668 10.273 16.2936 8.18248 15.7267C6.09203 15.1597 3.91036 15.0101 1.76207 15.2863L1.7723 15.3659C7.19209 14.6693 12.9812 24.9578 13.6801 30.3791L13.679 30.3792C14.0949 33.6148 15.4608 36.6543 17.604 39.1135C19.7473 41.5727 22.5716 43.3412 25.7199 44.1952C28.8683 45.0493 32.1991 44.9507 35.2914 43.9116C38.3836 42.8727 41.0983 40.9401 43.0923 38.3584C45.086 35.7765 46.2696 32.6615 46.4932 29.4069C46.7168 26.1525 45.9701 22.905 44.348 20.0748C42.7258 17.2446 40.3008 14.9591 37.3797 13.5071C34.4584 12.0551 31.1723 11.502 27.9369 11.9175Z"/><path xmlns="http://www.w3.org/2000/svg" fill="white" d="M58.2872 14.0958V33H54.4955V14.0958H58.2872ZM70.348 17.7792C72.1355 17.7792 73.5799 18.3479 74.6813 19.4854C75.7827 20.6049 76.3334 22.1757 76.3334 24.1979V33H72.5417V24.7125C72.5417 23.5208 72.2438 22.609 71.648 21.9771C71.0521 21.3271 70.2396 21.0021 69.2105 21.0021C68.1632 21.0021 67.3327 21.3271 66.7188 21.9771C66.123 22.609 65.8251 23.5208 65.8251 24.7125V33H62.0334V17.9958H65.8251V19.8646C66.3306 19.2146 66.9716 18.709 67.748 18.3479C68.5424 17.9687 69.4091 17.7792 70.348 17.7792ZM86.8182 21.1104H84.1911V33H80.3453V21.1104H78.6391V17.9958H80.3453V17.2375C80.3453 15.3958 80.8689 14.0417 81.9161 13.175C82.9634 12.3083 84.5432 11.9021 86.6557 11.9563V15.1521C85.7349 15.134 85.0939 15.2875 84.7328 15.6125C84.3717 15.9375 84.1911 16.5243 84.1911 17.3729V17.9958H86.8182V21.1104ZM91.1983 16.2083C90.5303 16.2083 89.9705 16.0007 89.5192 15.5854C89.0858 15.1521 88.8692 14.6194 88.8692 13.9875C88.8692 13.3556 89.0858 12.8319 89.5192 12.4167C89.9705 11.9833 90.5303 11.7667 91.1983 11.7667C91.8664 11.7667 92.4171 11.9833 92.8504 12.4167C93.3018 12.8319 93.5275 13.3556 93.5275 13.9875C93.5275 14.6194 93.3018 15.1521 92.8504 15.5854C92.4171 16.0007 91.8664 16.2083 91.1983 16.2083ZM93.0671 17.9958V33H89.2754V17.9958H93.0671ZM105.128 17.7792C106.915 17.7792 108.36 18.3479 109.461 19.4854C110.563 20.6049 111.113 22.1757 111.113 24.1979V33H107.322V24.7125C107.322 23.5208 107.024 22.609 106.428 21.9771C105.832 21.3271 105.02 21.0021 103.99 21.0021C102.943 21.0021 102.113 21.3271 101.499 21.9771C100.903 22.609 100.605 23.5208 100.605 24.7125V33H96.8133V17.9958H100.605V19.8646C101.11 19.2146 101.751 18.709 102.528 18.3479C103.322 17.9687 104.189 17.7792 105.128 17.7792ZM116.642 16.2083C115.974 16.2083 115.414 16.0007 114.963 15.5854C114.529 15.1521 114.313 14.6194 114.313 13.9875C114.313 13.3556 114.529 12.8319 114.963 12.4167C115.414 11.9833 115.974 11.7667 116.642 11.7667C117.31 11.7667 117.861 11.9833 118.294 12.4167C118.745 12.8319 118.971 13.3556 118.971 13.9875C118.971 14.6194 118.745 15.1521 118.294 15.5854C117.861 16.0007 117.31 16.2083 116.642 16.2083ZM118.511 17.9958V33H114.719V17.9958H118.511ZM125.723 29.8854H132.413V33H121.417V29.9396L127.971 21.1104H121.444V17.9958H132.332V21.0563L125.723 29.8854ZM134.374 25.4437C134.374 23.9271 134.672 22.5819 135.268 21.4083C135.881 20.2347 136.703 19.3319 137.732 18.7C138.779 18.0681 139.944 17.7521 141.226 17.7521C142.345 17.7521 143.32 17.9778 144.151 18.4292C145 18.8806 145.677 19.4493 146.182 20.1354V17.9958H150.001V33H146.182V30.8063C145.695 31.5104 145.018 32.0972 144.151 32.5667C143.302 33.0181 142.318 33.2438 141.199 33.2438C139.935 33.2438 138.779 32.9188 137.732 32.2688C136.703 31.6188 135.881 30.7069 135.268 29.5333C134.672 28.3417 134.374 26.9785 134.374 25.4437ZM146.182 25.4979C146.182 24.5771 146.002 23.7917 145.64 23.1417C145.279 22.4736 144.792 21.9681 144.178 21.625C143.564 21.2639 142.905 21.0833 142.201 21.0833C141.497 21.0833 140.847 21.2549 140.251 21.5979C139.655 21.941 139.168 22.4465 138.788 23.1146C138.427 23.7646 138.247 24.541 138.247 25.4437C138.247 26.3465 138.427 27.141 138.788 27.8271C139.168 28.4951 139.655 29.0097 140.251 29.3708C140.865 29.7319 141.515 29.9125 142.201 29.9125C142.905 29.9125 143.564 29.741 144.178 29.3979C144.792 29.0368 145.279 28.5312 145.64 27.8812C146.002 27.2132 146.182 26.4188 146.182 25.4979ZM155.627 16.2083C154.959 16.2083 154.399 16.0007 153.948 15.5854C153.515 15.1521 153.298 14.6194 153.298 13.9875C153.298 13.3556 153.515 12.8319 153.948 12.4167C154.399 11.9833 154.959 11.7667 155.627 11.7667C156.295 11.7667 156.846 11.9833 157.279 12.4167C157.731 12.8319 157.956 13.3556 157.956 13.9875C157.956 14.6194 157.731 15.1521 157.279 15.5854C156.846 16.0007 156.295 16.2083 155.627 16.2083ZM157.496 17.9958V33H153.704V17.9958H157.496Z"/><path xmlns="http://www.w3.org/2000/svg" fill="#3BAAFB" d="M169.998 26.4893H164.5V31.9871H169.998V26.4893Z"/><defs xmlns="http://www.w3.org/2000/svg"><linearGradient id="paint0_linear_1_60" x1="16.803" x2="49.79" y1="9.706" y2="47.641" gradientUnits="userSpaceOnUse"><stop stop-color="#57B8FF"/><stop offset=".941" stop-color="#038EF2"/><stop offset="1" stop-color="white" stop-opacity="0"/></linearGradient></defs>
		</g>
		<g id="cart">
			<g xmlns="http://www.w3.org/2000/svg" clip-path="url(#clip0_1_66)"><path fill="white" d="M12.6619 23.9199C10.4341 23.9199 8.62158 25.7324 8.62158 27.9603C8.62158 30.1881 10.4341 32.0006 12.6619 32.0006C14.8898 32.0006 16.7023 30.1881 16.7023 27.9603C16.7023 25.7324 14.8897 23.9199 12.6619 23.9199ZM12.6619 29.5764C11.7706 29.5764 11.0458 28.8516 11.0458 27.9603C11.0458 27.069 11.7706 26.3442 12.6619 26.3442C13.5528 26.3442 14.2781 27.069 14.2781 27.9603C14.2781 28.8515 13.5533 29.5764 12.6619 29.5764Z"/><path fill="white" d="M24.6212 23.9199C22.3933 23.9199 20.5808 25.7324 20.5808 27.9603C20.5808 30.1881 22.3933 32.0006 24.6212 32.0006C26.849 32.0006 28.6615 30.1881 28.6615 27.9603C28.6615 25.7324 26.849 23.9199 24.6212 23.9199ZM24.6212 29.5764C23.7299 29.5764 23.0051 28.8516 23.0051 27.9603C23.0051 27.069 23.7299 26.3442 24.6212 26.3442C25.5125 26.3442 26.2373 27.069 26.2373 27.9603C26.2373 28.8515 25.5125 29.5764 24.6212 29.5764Z"/><path fill="white" d="M31.6304 7.89211C31.4001 7.60279 31.0511 7.43436 30.6818 7.43436H9.4579L8.3561 1.86594C8.25953 1.37826 7.87491 0.998883 7.3856 0.909196L2.53718 0.0203247C1.87743 -0.1013 1.24712 0.335511 1.12631 0.994071C1.0055 1.65263 1.44144 2.28413 2.10006 2.40494L6.13798 3.14512L9.69509 21.1242C9.8074 21.6919 10.3056 22.1012 10.8841 22.1012H27.8536C28.418 22.1012 28.9073 21.7121 29.0346 21.1614L31.8628 8.91916C31.946 8.55917 31.8604 8.18098 31.6304 7.89211ZM26.8895 19.677H11.8796L9.93746 9.85897H29.1573L26.8895 19.677Z"/></g><defs xmlns="http://www.w3.org/2000/svg"><clipPath id="clip0_1_66"><path fill="white" d="M0 0H32V32H0z" transform="translate(.5)"/></clipPath></defs>
		</g>
	</defs>
</svg>